<svg width="24" height="20" viewBox="0 0 24 20" fill="none" xmlns="http://www.w3.org/2000/svg">
<path d="M0 0.432007H2.619V19.953H0V0.432007Z" fill="#2563EB"/>
<path d="M3.61902 9.99C3.61902 8.64 3.87102 7.371 4.37502 6.183C4.89702 4.977 5.61702 3.915 6.53502 2.997C7.45302 2.061 8.50602 1.332 9.69402 0.81C10.9 0.27 12.196 0 13.582 0C14.95 0 16.228 0.27 17.416 0.81C18.622 1.332 19.684 2.061 20.602 2.997C21.538 3.915 22.267 4.977 22.789 6.183C23.311 7.371 23.572 8.64 23.572 9.99C23.572 11.376 23.311 12.672 22.789 13.878C22.267 15.084 21.538 16.146 20.602 17.064C19.684 17.964 18.622 18.675 17.416 19.197C16.228 19.701 14.95 19.953 13.582 19.953C12.196 19.953 10.9 19.701 9.69402 19.197C8.50602 18.693 7.45302 17.991 6.53502 17.091C5.61702 16.191 4.89702 15.138 4.37502 13.932C3.87102 12.726 3.61902 11.412 3.61902 9.99ZM6.31902 10.017C6.31902 11.043 6.50802 12.006 6.88602 12.906C7.26402 13.788 7.78602 14.571 8.45202 15.255C9.11802 15.939 9.89202 16.479 10.774 16.875C11.656 17.253 12.61 17.442 13.636 17.442C14.644 17.442 15.589 17.253 16.471 16.875C17.353 16.479 18.118 15.939 18.766 15.255C19.414 14.571 19.927 13.788 20.305 12.906C20.683 12.006 20.872 11.034 20.872 9.99C20.872 8.964 20.683 8.001 20.305 7.101C19.927 6.183 19.405 5.382 18.739 4.698C18.073 4.014 17.299 3.483 16.417 3.105C15.535 2.709 14.59 2.511 13.582 2.511C12.556 2.511 11.602 2.709 10.72 3.105C9.83802 3.501 9.06402 4.041 8.39802 4.725C7.73202 5.409 7.21902 6.21 6.85902 7.128C6.49902 8.028 6.31902 8.991 6.31902 10.017Z" fill="#2563EB"/>
<path d="M13.3522 11.4389C14.8853 11.4389 16.1283 9.987 16.1283 8.196C16.1283 5.71227 14.8854 4.953 13.3522 4.953C11.819 4.953 10.5761 5.71227 10.5761 8.196C10.5761 9.987 11.819 11.4389 13.3522 11.4389Z" fill="#2563EB"/>
<path d="M18.9344 14.5835C19.1507 14.2065 18.8239 13.7847 18.543 13.453C18.4789 13.3089 17.9053 12.7997 17.7652 12.7269L15.5916 11.5976C15.5436 11.5727 15.4856 11.5776 15.4425 11.6101C14.8277 12.0742 14.1049 12.3195 13.3522 12.3195C12.5994 12.3195 11.8766 12.0742 11.2619 11.6101C11.2186 11.5776 11.1606 11.5727 11.1127 11.5976L8.93921 12.7269C8.79911 12.7997 8.68661 12.9191 8.62251 13.0633L8.42241 13.3704C8.16991 13.7582 7.84331 14.2299 8.09591 14.6176C8.22561 14.8167 8.4451 14.9355 8.683 14.9355H18.3264C18.5643 14.9355 18.7838 14.8166 18.9135 14.6176C18.9208 14.6064 18.9278 14.595 18.9344 14.5835Z" fill="#2563EB"/>
</svg>
