<svg width="856" height="182" viewBox="0 0 856 182" fill="none" xmlns="http://www.w3.org/2000/svg">
<path d="M108.482 127.181C108.482 116.833 110.864 107.566 115.626 99.3804C120.542 91.1947 127.379 84.7852 136.136 80.1518C144.893 75.3639 154.955 72.97 166.324 72.97C177.846 72.97 187.832 75.3639 196.282 80.1518C204.732 84.7852 211.184 91.1947 215.639 99.3804C220.248 107.566 222.553 116.833 222.553 127.181C222.553 137.529 220.248 146.873 215.639 155.213C211.184 163.399 204.732 169.886 196.282 174.673C187.832 179.461 177.693 181.855 165.863 181.855C154.802 181.855 144.893 179.693 136.136 175.368C127.533 171.044 120.773 164.789 115.857 156.603C110.941 148.417 108.482 138.61 108.482 127.181ZM140.975 127.413C140.975 132.664 142.051 137.452 144.201 141.776C146.352 145.946 149.271 149.267 152.958 151.738C156.645 154.209 160.793 155.445 165.402 155.445C170.472 155.445 174.851 154.209 178.538 151.738C182.225 149.267 185.067 145.946 187.064 141.776C189.061 137.452 190.06 132.664 190.06 127.413C190.06 122.007 189.061 117.219 187.064 113.049C185.067 108.879 182.225 105.558 178.538 103.087C174.851 100.616 170.472 99.3804 165.402 99.3804C160.793 99.3804 156.645 100.616 152.958 103.087C149.271 105.558 146.352 108.879 144.201 113.049C142.051 117.219 140.975 122.007 140.975 127.413Z" fill="white"/>
<path d="M108.482 127.181C108.482 116.833 110.864 107.566 115.626 99.3804C120.542 91.1947 127.379 84.7852 136.136 80.1518C144.893 75.3639 154.955 72.97 166.324 72.97C177.846 72.97 187.832 75.3639 196.282 80.1518C204.732 84.7852 211.184 91.1947 215.639 99.3804C220.248 107.566 222.553 116.833 222.553 127.181C222.553 137.529 220.248 146.873 215.639 155.213C211.184 163.399 204.732 169.886 196.282 174.673C187.832 179.461 177.693 181.855 165.863 181.855C154.802 181.855 144.893 179.693 136.136 175.368C127.533 171.044 120.773 164.789 115.857 156.603C110.941 148.417 108.482 138.61 108.482 127.181ZM140.975 127.413C140.975 132.664 142.051 137.452 144.201 141.776C146.352 145.946 149.271 149.267 152.958 151.738C156.645 154.209 160.793 155.445 165.402 155.445C170.472 155.445 174.851 154.209 178.538 151.738C182.225 149.267 185.067 145.946 187.064 141.776C189.061 137.452 190.06 132.664 190.06 127.413C190.06 122.007 189.061 117.219 187.064 113.049C185.067 108.879 182.225 105.558 178.538 103.087C174.851 100.616 170.472 99.3804 165.402 99.3804C160.793 99.3804 156.645 100.616 152.958 103.087C149.271 105.558 146.352 108.879 144.201 113.049C142.051 117.219 140.975 122.007 140.975 127.413Z" fill="#4E4E4E"/>
<path fill-rule="evenodd" clip-rule="evenodd" d="M87.9413 18.9498C78.2148 14.1744 66.3268 11.7866 52.2774 11.7866H0.634277V181.855H34.2139V128.015H58.2986C69.4146 128.015 78.7551 126.321 86.3202 122.932C90.3815 121.068 93.9942 118.905 97.1574 116.445C98.3883 108.152 101.078 100.335 105.312 93.1126L105.357 93.0347L105.404 92.9585C108.655 87.5848 112.578 82.8325 117.129 78.7108C117.587 75.4878 117.816 72.2819 117.816 69.0923C117.816 57.3847 115.268 47.2946 110.173 38.822C105.078 30.1953 97.6678 23.5713 87.9413 18.9498ZM70.8041 92.8926C67.4075 94.5871 63.1618 95.4344 58.067 95.4344H34.2139V44.1366H58.2986C64.1654 44.1366 68.797 45.1379 72.1936 47.1405C75.7445 49.1431 78.3692 51.6079 80.0674 54.5348C81.7657 57.4617 82.8464 60.3886 83.3096 63.3155C83.9272 66.0884 84.2359 68.322 84.2359 70.0166C84.2359 72.1732 83.7728 74.715 82.8464 77.6419C82.0745 80.5688 80.685 83.4187 78.6779 86.1915C76.8253 88.8104 74.2006 91.044 70.8041 92.8926Z" fill="#4E4E4E"/>
<path d="M313.162 36.6744H345.989V80.5286H370.844V105.687H345.989V181.855H313.162V105.687H297.217V80.5286H313.162V36.6744Z" fill="#4E4E4E"/>
<path d="M258.014 73.9309L257.662 70.1004H254.396H229.639H226V74.3937V175.707V180H229.639H256.951H260.589V175.707V136.062C260.589 130.937 261.669 125.902 263.902 120.911C266.087 116.024 269.178 112.1 273.231 109.095C276.977 106.317 281.601 105.18 287.357 106.012L291.239 106.573L291.434 101.965L292.809 69.5079L293 65H289.175C286.111 65 282.224 66.5138 277.845 68.8622L277.806 68.8837C273.274 71.3901 268.757 74.9321 264.249 79.4418C262.362 81.2664 260.635 83.2542 259.067 85.4008L258.014 73.9309Z" fill="#4E4E4E"/>
<path d="M395.515 181.856V109.543H378.104V81.0766H395.515V46.1826C395.515 33.0209 399.358 22.3078 407.044 14.0435C414.887 5.62606 426.18 1.41736 440.925 1.41736C445.317 1.41736 450.18 2.10605 455.513 3.48345C461.003 4.7078 467.355 8.76345 471.434 11.6713L455.983 32.8678C455.983 32.8678 452.532 29.5774 450.336 28.9652C448.297 28.2 446.337 27.8174 444.454 27.8174C439.749 27.8174 435.906 29.3478 432.925 32.4087C429.945 35.4696 428.455 40.367 428.455 47.1009V81.0766H459.513V109.543H428.455V181.856H395.515Z" fill="#4E4E4E"/>
<path d="M465.212 122.516C465.212 112.267 467.593 103.088 472.356 94.9805C477.272 86.8728 484.108 80.5243 492.865 75.935C501.622 71.1927 511.685 68.8215 523.054 68.8215C534.576 68.8215 544.562 71.1927 553.011 75.935C561.461 80.5243 567.914 86.8728 572.369 94.9805C576.978 103.088 579.282 112.267 579.282 122.516C579.282 132.766 576.978 142.021 572.369 150.281C567.914 158.389 561.461 164.814 553.011 169.556C544.562 174.299 534.422 176.67 522.593 176.67C511.531 176.67 501.622 174.528 492.865 170.245C484.262 165.961 477.502 159.766 472.586 151.658C467.67 143.55 465.212 133.836 465.212 122.516ZM497.705 122.746C497.705 127.947 498.78 132.689 500.931 136.972C503.082 141.103 506.001 144.392 509.688 146.839C513.375 149.287 517.523 150.511 522.132 150.511C527.202 150.511 531.58 149.287 535.267 146.839C538.954 144.392 541.796 141.103 543.794 136.972C545.791 132.689 546.789 127.947 546.789 122.746C546.789 117.392 545.791 112.649 543.794 108.519C541.796 104.389 538.954 101.1 535.267 98.652C531.58 96.2043 527.202 94.9805 522.132 94.9805C517.523 94.9805 513.375 96.2043 509.688 98.652C506.001 101.1 503.082 104.389 500.931 108.519C498.78 112.649 497.705 117.392 497.705 122.746Z" fill="#4E4E4E"/>
<path fill-rule="evenodd" clip-rule="evenodd" d="M605.206 0.379639H572.021V73.7961C576.697 78.0547 580.648 82.993 583.818 88.5958C589.756 98.8098 592.59 110.19 592.59 122.411C592.59 134.653 589.747 146.085 583.842 156.412C580.665 162.038 576.707 167.012 572.021 171.324V181.855H605.206V0.379639ZM572.021 150.749C572.119 150.581 572.215 150.411 572.311 150.242C577.052 141.962 579.422 132.685 579.422 122.411C579.422 112.137 577.052 102.937 572.311 94.8102C572.215 94.6407 572.119 94.4712 572.021 94.3034V150.749Z" fill="#4E4E4E"/>
<path d="M613.503 165.892C613.503 161.311 615.11 157.468 618.323 154.364C621.683 151.26 625.334 149.708 629.278 149.708C632.929 149.708 636.361 151.26 639.575 154.364C642.934 157.468 644.613 161.311 644.613 165.892C644.613 170.77 642.934 174.687 639.575 177.643C636.361 180.451 632.929 181.855 629.278 181.855C625.334 181.855 621.683 180.451 618.323 177.643C615.11 174.687 613.503 170.77 613.503 165.892Z" fill="#4E4E4E"/>
<path d="M654 0H676V182H654V0Z" fill="#2563EB"/>
<path d="M685.056 96.9359C685.056 85.4292 687.204 74.613 691.499 64.4871C695.949 54.2078 702.086 45.1559 709.91 37.3314C717.735 29.3535 726.71 23.1399 736.836 18.6906C747.115 14.088 758.161 11.7866 769.975 11.7866C781.635 11.7866 792.528 14.088 802.654 18.6906C812.933 23.1399 821.985 29.3535 829.809 37.3314C837.787 45.1559 844.001 54.2078 848.45 64.4871C852.899 74.613 855.124 85.4292 855.124 96.9359C855.124 108.749 852.899 119.796 848.45 130.075C844.001 140.354 837.787 149.406 829.809 157.231C821.985 164.902 812.933 170.962 802.654 175.411C792.528 179.707 781.635 181.855 769.975 181.855C758.161 181.855 747.115 179.707 736.836 175.411C726.71 171.115 717.735 165.132 709.91 157.461C702.086 149.79 695.949 140.815 691.499 130.535C687.204 120.256 685.056 109.056 685.056 96.9359ZM708.069 97.166C708.069 105.911 709.68 114.119 712.902 121.79C716.124 129.308 720.573 135.982 726.25 141.812C731.926 147.642 738.523 152.245 746.041 155.62C753.559 158.842 761.69 160.453 770.435 160.453C779.027 160.453 787.081 158.842 794.599 155.62C802.117 152.245 808.637 147.642 814.16 141.812C819.684 135.982 824.056 129.308 827.278 121.79C830.5 114.119 832.111 105.834 832.111 96.9359C832.111 88.1908 830.5 79.9828 827.278 72.3116C824.056 64.4871 819.607 57.6598 813.93 51.8298C808.254 45.9998 801.656 41.4738 794.139 38.2519C786.621 34.8767 778.566 33.189 769.975 33.189C761.23 33.189 753.098 34.8767 745.581 38.2519C738.063 41.6272 731.466 46.2299 725.789 52.0599C720.113 57.89 715.74 64.7173 712.672 72.5418C709.603 80.2129 708.069 88.421 708.069 97.166Z" fill="#2563EB"/>
<path d="M768.017 110.302C781.188 110.302 791.868 97.7664 791.868 82.3032C791.868 60.8591 781.189 54.3037 768.017 54.3037C754.844 54.3037 744.166 60.8591 744.166 82.3032C744.166 97.7664 754.844 110.302 768.017 110.302Z" fill="#2563EB"/>
<path d="M815.123 136.399C816.958 133.251 814.185 129.73 811.802 126.961C811.258 125.758 806.391 121.506 805.202 120.899L786.76 111.47C786.353 111.262 785.86 111.303 785.495 111.575C780.278 115.449 774.146 117.497 767.759 117.497C761.372 117.497 755.239 115.449 750.024 111.575C749.656 111.303 749.164 111.262 748.758 111.47L730.316 120.899C729.127 121.506 728.173 122.503 727.629 123.707L725.931 126.271C723.789 129.509 721.018 133.447 723.161 136.684C724.261 138.346 726.124 139.338 728.142 139.338H809.964C811.982 139.338 813.845 138.345 814.945 136.684C815.007 136.59 815.067 136.495 815.123 136.399Z" fill="#2563EB"/>
</svg>
